<?xml version="1.0" encoding="utf-8"?>
<!-- Generator: Adobe Illustrator 22.1.0, SVG Export Plug-In . SVG Version: 6.00 Build 0)  -->
<svg version="1.1" id="Capa_1" xmlns="http://www.w3.org/2000/svg" xmlns:xlink="http://www.w3.org/1999/xlink" x="0px" y="0px"
	 viewBox="0 0 144 330" style="enable-background:new 0 0 144 330;" xml:space="preserve">
<style type="text/css">
	.st0{fill:#FEEABE;}
</style>
<g>
	<path class="st0" d="M91.1,319c9.6-5.3,15.7-12.1,20.7-19.4c7.2-10.5,12-21.5,14.8-32.8c2.7-11.1,5.5-22.2,6.8-33.3
		c1.8-15.5,2.2-31,3.2-46.5c-0.3,0-0.7,0-1,0c0-3.3,0.3-6.6,0-9.9c-1.5-15.8-2.9-31.5-4.9-47.3c-1.3-9.9-3.1-19.8-5.5-29.6
		c-2.8-11.4-6.3-22.7-10-34c-3.9-11.9-9.2-23.5-16.7-34.7c-3.5-5.2-7.6-10.2-13.3-14.5c-8.3-6.3-17.9-6.7-26.5-0.6
		c-4.4,3.2-8.1,6.9-11.1,10.7c-8.8,11-14,22.8-18.5,34.7c-3.4,9.1-6.3,18.2-8.6,27.4c-3.1,12-5.9,24.1-7.9,36.2
		c-2.1,13-3.3,26-4.6,39c-1.7,17.9-1.6,35.9-0.4,53.8c1.2,17.9,3.9,35.7,9.7,53.2c3.7,11.3,8.6,22.4,16.8,32.8
		c4.6,5.8,10.1,11.2,18.2,15.3C64.4,325.7,79.3,325.5,91.1,319z M71.5,215l2,4.7l-1.5-0.3c2.9,0.4,5.3,1.6,7.3,3.6
		c2.6,2.6,4,6.2,4.2,10.7c0.2,4.6-1,8.2-3.4,11c-2.4,2.8-5.8,4.3-10,4.5c-4.3,0.2-7.7-1.1-10.3-3.7c-2.6-2.6-4-6.2-4.2-10.7
		c-0.2-4.6,1-8.2,3.4-11c2.4-2.8,3.6-4.1,7.8-4.3l3.8-4.6C70.8,214.6,71.3,214.6,71.5,215z M104,183.8c1.5,0.9,2.9,1.9,4.2,3
		c9.1,7.4,13.6,17.6,13.6,30.5c0,12.9-4.5,23-13.6,30.4c-9.1,7.5-21.4,11.2-37,11.2c-15.3,0-27.5-3.6-36.5-10.7
		c-4.7-3.8-8.5-8.6-10.9-14.1c-1.6-3.7-5.9-13.1-1.2-16.1c1.6-1,3.6-1.2,5.6-1.2c4.1-0.1,8.2,0.1,12.3,0.4c1.2,8,3.6,14,11.3,17.8
		c0.4,0.2,0.9,0.4,1.4,0.6c0,0.5,0.1,0.9,0.2,1.4c0.8,5.2,2.9,9.1,6.2,11.7c3.4,2.7,7.5,3.6,12.3,2.9c4.8-0.7,8.5-2.9,10.9-6.4
		c1.6-2.4,2.5-5.1,2.7-8.3c1.9-0.5,3.7-1.2,5.4-2c7.3-3.6,10.9-9.5,10.9-17.8c0-8.3-3.6-14.3-10.9-17.9c-1.2-0.6-2.5-1.1-3.8-1.5
		c-1.2-0.4-2.6-0.2-2.4-1.6c0.3-1.9,2.6-4.3,3.8-5.8c2.8-3.5,6.4-6.4,10.4-8.5c0.3-0.1,0.6-0.3,0.9-0.3
		C101,181.5,102.8,183.1,104,183.8z M67.8,160.6c-0.3,0.3-0.8,0.2-1-0.2l-1.8-4.7l1.5,0.4c-2.9-0.5-5.2-1.8-7.2-3.8
		c-2.5-2.7-3.8-6.3-3.8-10.9c0-4.6,1.3-8.2,3.8-10.9c2.5-2.7,5.9-4.1,10.2-4.1c4.3,0,7.7,1.4,10.2,4.1c2.5,2.7,3.8,6.3,3.8,10.9
		c0,4.6-1.3,8.2-3.8,10.9c-2.5,2.7-3.7,4-8,4L67.8,160.6z M105.5,125.8c6,4.6,10.4,11.2,12.5,18.4c3.1,10.6-6.1,9.6-13.7,10.3
		c-7.1,0.6-4.8-4.2-7.3-8.4c-1.9-3.1-4.7-5.6-8.1-7.1c-1.1-0.5-2.3-1-3.6-1.4c-0.4-4-1.8-7.2-4.3-9.8c-2.9-3.1-6.9-4.7-11.8-4.7
		c-4.9,0-8.9,1.6-11.8,4.7c-2.7,2.9-4.2,6.6-4.4,11.3c0,0,0,0,0,0c-6.8,3.3-10.2,8.8-10.2,16.4c0,7.6,3.4,13.1,10.2,16.4
		c2.6,1.3,5.7,2.2,9.3,2.8c2.7,0.5,5.7,0.7,8.9,0.7c3.3,0,6.6,0.2,9.9,0.6c1.6,0.2,3.3,0.5,4.9,0.8c0.8,0.2,3.8,0.4,4.1,1.2
		c0.3,0.7-1.6,3.1-1.9,3.7c-0.7,1.2-1.5,2.3-2.4,3.3c-1.7,2.1-3.7,4.1-5.8,5.8c-2,1.6-4.4,3.4-6.9,4.2c-2.9,1-6,0.7-9,0.4
		c-3.7-0.3-7.3-0.9-10.9-1.9c-6.3-1.7-12.4-4.6-17.4-8.8c-8.8-7.3-13.1-17-13.1-29.2c0-12.1,4.4-21.9,13.1-29.2
		c8.8-7.2,20.6-10.8,35.3-10.8C85.3,115.7,96.7,119.1,105.5,125.8z"/>
</g>
</svg>
