<?xml version="1.0" encoding="utf-8"?>
<!-- Generator: Adobe Illustrator 22.1.0, SVG Export Plug-In . SVG Version: 6.00 Build 0)  -->
<svg version="1.1" id="Capa_1" xmlns="http://www.w3.org/2000/svg" xmlns:xlink="http://www.w3.org/1999/xlink" x="0px" y="0px"
	 viewBox="0 0 14 14" style="enable-background:new 0 0 14 14;" xml:space="preserve">
<style type="text/css">
	.st0{fill:#2C9BB3;}
	.st1{fill:#FFFFFF;}
</style>
<g>
	<path class="st0" d="M11.5,4c-0.2-1.2-0.7-2.2-1.6-2.9C9.1,0.4,8.1,0,7,0C6.8,0,6.5,0,6.3,0.1c-1.2,0.2-2.2,0.8-3,1.8
		C2.8,2.5,2.5,3.3,2.4,4.2c0,0.6,0,1.1,0.2,1.6C2.8,6.4,3,6.9,3.2,7.4C3.5,8.3,4,9.1,4.4,9.9c0.4,0.7,0.8,1.4,1.2,2
		c0.4,0.7,0.8,1.3,1.3,1.9C7,14,7,14,7.1,13.9c0.7-1,1.4-2.1,2-3.2C9.5,10,10,9.2,10.3,8.4c0.4-0.8,0.8-1.6,1-2.5
		C11.6,5.3,11.6,4.7,11.5,4z"/>
</g>
<g>
	<path class="st1" d="M7,7.2l0.1,0.2H7c0.1,0,0.2,0.1,0.3,0.2c0.1,0.1,0.2,0.3,0.2,0.5c0,0.2,0,0.3-0.1,0.5C7.2,8.7,7.1,8.7,6.9,8.7
		c-0.2,0-0.3,0-0.5-0.2C6.3,8.4,6.3,8.3,6.3,8.1c0-0.2,0-0.3,0.1-0.5c0.1-0.1,0.2-0.2,0.3-0.2L7,7.2L7,7.2z"/>
	<path class="st1" d="M8.4,5.9C8.5,5.9,8.5,6,8.6,6C9,6.3,9.2,6.8,9.2,7.3S9,8.3,8.6,8.6C8.2,8.9,7.7,9.1,7,9.1
		c-0.7,0-1.2-0.2-1.6-0.5C5.2,8.4,5.1,8.2,5,8c-0.1-0.2-0.3-0.5,0-0.7c0,0,0.1,0,0.2,0c0.2,0,0.3,0,0.5,0c0,0.3,0.2,0.6,0.5,0.8
		c0,0,0,0,0,0c0,0,0,0,0,0c0,0.2,0.1,0.4,0.3,0.5C6.6,8.8,6.8,8.8,7,8.8c0.2,0,0.4-0.1,0.5-0.3c0.1-0.1,0.1-0.2,0.1-0.3
		c0.1,0,0.2,0,0.3-0.1c0.3-0.2,0.5-0.4,0.5-0.8S8.2,6.7,7.9,6.5c0,0-0.1,0-0.2-0.1c0,0-0.1,0-0.1-0.1c0-0.1,0.1-0.2,0.2-0.3
		C7.9,6,8.1,5.8,8.2,5.7h0C8.3,5.8,8.3,5.9,8.4,5.9z"/>
	<path class="st1" d="M6.9,4.9L6.9,4.9L6.7,4.7h0.1c-0.1,0-0.2-0.1-0.3-0.2C6.4,4.4,6.4,4.3,6.4,4.1s0-0.3,0.2-0.5
		c0.1-0.1,0.3-0.2,0.4-0.2s0.3,0,0.4,0.2c0.1,0.1,0.2,0.3,0.2,0.5s0,0.3-0.2,0.5S7.2,4.7,7,4.7L6.9,4.9z"/>
	<path class="st1" d="M8.5,3.4C8.7,3.6,8.9,3.9,9,4.2c0.1,0.5-0.3,0.4-0.6,0.5c-0.3,0-0.2-0.2-0.3-0.4C8,4.2,7.9,4,7.8,4
		c0,0-0.1,0-0.2,0c0-0.2-0.1-0.3-0.2-0.4C7.3,3.4,7.2,3.3,6.9,3.3c-0.2,0-0.4,0.1-0.5,0.2S6.3,3.8,6.2,4l0,0
		C5.9,4.2,5.8,4.4,5.8,4.7s0.1,0.5,0.4,0.7c0.1,0,0.3,0.1,0.4,0.1c0.1,0,0.3,0,0.4,0c0.1,0,0.3,0,0.4,0c0.1,0,0.1,0,0.2,0
		c0,0,0.2,0,0.2,0S7.7,5.9,7.7,5.9C7.7,6,7.7,6,7.7,6C7.6,6.1,7.5,6.2,7.4,6.3C7.3,6.4,7.2,6.4,7.1,6.5c-0.1,0-0.3,0-0.4,0
		c-0.2,0-0.3,0-0.5-0.1C6,6.3,5.7,6.2,5.5,6C5.1,5.7,5,5.3,5,4.7c0-0.5,0.2-0.9,0.5-1.3C5.9,3.2,6.4,3,7,3C7.6,3,8.1,3.1,8.5,3.4z"
		/>
</g>
</svg>
